<?xml version="1.0" encoding="iso-8859-1"?>
<!-- Generator: Adobe Illustrator 19.0.0, SVG Export Plug-In . SVG Version: 6.00 Build 0)  -->
<svg version="1.1" id="Capa_1" xmlns="http://www.w3.org/2000/svg" xmlns:xlink="http://www.w3.org/1999/xlink" x="0px" y="0px"
	 viewBox="0 0 511.986 511.986" style="enable-background:new 0 0 511.986 511.986;" xml:space="preserve">
<g>
	
		<linearGradient id="SVGID_1_" gradientUnits="userSpaceOnUse" x1="-9.9327" y1="636.3" x2="-9.9327" y2="572.473" gradientTransform="matrix(8.5333 0 0 -8.5333 336.5587 5433.2866)">
		<stop  offset="0" style="stop-color:#FC5C7D"/>
		<stop  offset="0.129" style="stop-color:#F35E85"/>
		<stop  offset="0.343" style="stop-color:#D9659B"/>
		<stop  offset="0.616" style="stop-color:#B070BF"/>
		<stop  offset="0.934" style="stop-color:#777FF0"/>
		<stop  offset="1" style="stop-color:#6A82FB"/>
	</linearGradient>
	<path style="fill:url(#SVGID_1_);" d="M245.399,280.826l-4.267,16.538c6.997,1.792,14.336,1.792,21.333,0l-4.267-16.538
		C254.001,281.901,249.598,281.901,245.399,280.826z"/>
	
		<linearGradient id="SVGID_2_" gradientUnits="userSpaceOnUse" x1="-13.4239" y1="636.3" x2="-13.4239" y2="572.473" gradientTransform="matrix(8.5333 0 0 -8.5333 336.5587 5433.2866)">
		<stop  offset="0" style="stop-color:#FC5C7D"/>
		<stop  offset="0.129" style="stop-color:#F35E85"/>
		<stop  offset="0.343" style="stop-color:#D9659B"/>
		<stop  offset="0.616" style="stop-color:#B070BF"/>
		<stop  offset="0.934" style="stop-color:#777FF0"/>
		<stop  offset="1" style="stop-color:#6A82FB"/>
	</linearGradient>
	<path style="fill:url(#SVGID_2_);" d="M223.588,224.036c-17.673,15.582-19.371,42.547-3.789,60.22l0.009,0.009l12.8-11.298
		c-9.353-10.607-8.337-26.778,2.27-36.13L223.588,224.036z"/>
	
		<linearGradient id="SVGID_3_" gradientUnits="userSpaceOnUse" x1="-9.9317" y1="636.3" x2="-9.9317" y2="572.473" gradientTransform="matrix(8.5333 0 0 -8.5333 336.5587 5433.2866)">
		<stop  offset="0" style="stop-color:#FC5C7D"/>
		<stop  offset="0.129" style="stop-color:#F35E85"/>
		<stop  offset="0.343" style="stop-color:#D9659B"/>
		<stop  offset="0.616" style="stop-color:#B070BF"/>
		<stop  offset="0.934" style="stop-color:#777FF0"/>
		<stop  offset="1" style="stop-color:#6A82FB"/>
	</linearGradient>
	<path style="fill:url(#SVGID_3_);" d="M175.008,256.036c0,42.419,34.381,76.8,76.8,76.8s76.8-34.381,76.8-76.8
		s-34.381-76.8-76.8-76.8C209.414,179.287,175.059,213.643,175.008,256.036z M311.541,256.036c0,32.99-26.743,59.733-59.733,59.733
		s-59.733-26.743-59.733-59.733s26.743-59.733,59.733-59.733C284.781,196.346,311.499,223.063,311.541,256.036z"/>
	
		<linearGradient id="SVGID_4_" gradientUnits="userSpaceOnUse" x1="-9.4413" y1="636.3" x2="-9.4413" y2="572.473" gradientTransform="matrix(8.5333 0 0 -8.5333 336.5587 5433.2866)">
		<stop  offset="0" style="stop-color:#FC5C7D"/>
		<stop  offset="0.129" style="stop-color:#F35E85"/>
		<stop  offset="0.343" style="stop-color:#D9659B"/>
		<stop  offset="0.616" style="stop-color:#B070BF"/>
		<stop  offset="0.934" style="stop-color:#777FF0"/>
		<stop  offset="1" style="stop-color:#6A82FB"/>
	</linearGradient>
	<path style="fill:url(#SVGID_4_);" d="M456.608,76.836c-8.602-0.009-17.058,2.167-24.593,6.315
		c-23.219-14.362-50.935-19.635-77.807-14.788c-23.501-56.55-88.388-83.345-144.939-59.844c-27.145,11.281-48.7,32.879-59.93,60.041
		c-17.613-3.14-35.721-1.997-52.787,3.354c-16.819-22.69-48.853-27.443-71.543-10.624s-27.452,48.845-10.633,71.535
		c2.859,3.857,6.246,7.296,10.069,10.206c-12.988,39.765-2.526,83.447,27.076,113.007C14.59,292.951,8.343,350.603,36.52,394.566
		c0.734,1.152,1.579,2.185,2.347,3.294c-16.068,23.27-10.223,55.159,13.047,71.219c23.27,16.068,55.159,10.223,71.219-13.047
		c2.27-3.294,4.147-6.835,5.598-10.564c0.427,0,0.853,0.043,1.28,0.043c6.502-0.026,12.988-0.64,19.388-1.818
		c23.561,56.55,88.516,83.294,145.067,59.733c27.008-11.255,48.478-32.725,59.733-59.733c6.391,1.178,12.877,1.783,19.379,1.801
		c7.979-0.009,15.932-0.862,23.731-2.56c59.87-13.005,97.86-72.081,84.855-131.951c-4.523-20.804-14.933-39.876-29.995-54.929
		c22.562-22.4,34.347-53.453,32.324-85.18c23.663-15.479,30.293-47.215,14.814-70.878C489.888,85.591,473.837,76.879,456.608,76.836
		z M21.408,102.436c0-18.85,15.283-34.133,34.133-34.133s34.133,15.283,34.133,34.133S74.391,136.57,55.541,136.57
		S21.408,121.286,21.408,102.436z M39.737,151.076c26.897,8.721,55.774-6.007,64.495-32.913c3.251-10.035,3.328-20.838,0.213-30.916
		c12.894-3.584,26.411-4.369,39.637-2.321c-2.099,8.525-3.174,17.263-3.209,26.044v84.54l-71.091,45.739
		c-1.809,1.169-3.465,2.475-5.18,3.721C39.533,220.717,29.958,184.561,39.737,151.076z M140.874,215.793v80.486l-61.858-39.808
		c-0.205-0.137-0.401-0.29-0.606-0.435c0.205-0.137,0.393-0.299,0.606-0.435L140.874,215.793z M81.141,460.836
		c-18.85,0-34.133-15.283-34.133-34.133c0-18.85,15.283-34.133,34.133-34.133s34.133,15.283,34.133,34.133
		C115.274,445.553,99.991,460.836,81.141,460.836z M132.256,428.35c0-0.555,0.085-1.092,0.085-1.647
		c0.051-28.228-22.784-51.149-51.012-51.2c-10.923-0.017-21.572,3.465-30.37,9.933l-0.077-0.102
		c-24.149-37.641-18.441-87.083,13.653-118.229c1.707,1.263,3.413,2.56,5.248,3.721l71.091,45.739v84.54
		c0.034,8.832,1.126,17.63,3.26,26.206C140.2,427.915,136.232,428.256,132.256,428.35z M251.808,17.103
		c37.018,0.051,70.554,21.845,85.649,55.646c-8.32,2.884-16.273,6.741-23.68,11.503l-61.969,39.868l-61.969-39.868
		c-7.407-4.762-15.36-8.619-23.689-11.486C181.237,38.957,214.782,17.163,251.808,17.103z M157.941,110.97
		c0.026-7.433,0.939-14.839,2.722-22.059c7.006,2.423,13.705,5.675,19.942,9.685l55.467,35.669l-78.131,50.261V110.97z
		 M157.941,401.103v-73.557l78.097,50.261l-55.467,35.669c-6.238,4.019-12.928,7.279-19.925,9.737
		C158.863,415.977,157.958,408.552,157.941,401.103z M251.808,494.97c-37.018-0.06-70.554-21.837-85.649-55.637
		c8.32-2.893,16.265-6.75,23.68-11.511l61.969-39.868l61.969,39.868c7.415,4.753,15.36,8.619,23.68,11.503
		C322.361,473.133,288.825,494.918,251.808,494.97z M345.674,401.103c-0.026,7.415-0.939,14.805-2.714,22.007
		c-7.006-2.415-13.705-5.649-19.951-9.634l-55.467-35.669l78.131-50.261V401.103z M345.674,307.236l-93.867,60.425l-93.867-60.425
		v-102.4l93.867-60.399l93.867,60.399V307.236z M345.674,184.527l-78.097-50.261l55.467-35.669
		c6.238-4.002,12.928-7.262,19.934-9.702c1.775,7.228,2.679,14.635,2.697,22.076V184.527z M452.734,385.333
		c-20.045,31.198-56.593,47.633-93.235,41.933c2.116-8.559,3.209-17.348,3.243-26.163v-84.54l71.091-45.739
		c1.818-1.169,3.567-2.415,5.299-3.678C471.183,298.302,476.866,347.718,452.734,385.333z M362.741,296.279v-80.486l61.858,39.808
		c0.205,0.128,0.384,0.29,0.597,0.427c-0.213,0.137-0.393,0.307-0.597,0.444L362.741,296.279z M438.91,244.943
		c-1.707-1.229-3.311-2.509-5.077-3.652l-71.091-45.781v-84.54c-0.034-8.832-1.126-17.63-3.251-26.197
		c20.011-3.106,40.491,0.375,58.359,9.907c-18.466,21.359-16.119,53.641,5.239,72.107c12.211,10.564,28.698,14.729,44.467,11.247
		C467.505,203.309,457.163,227.467,438.91,244.943z M456.608,162.17c-18.85,0-34.133-15.283-34.133-34.133
		s15.283-34.133,34.133-34.133s34.133,15.283,34.133,34.133S475.458,162.17,456.608,162.17z"/>
	
		<linearGradient id="SVGID_5_" gradientUnits="userSpaceOnUse" x1="15.0663" y1="636.3" x2="15.0663" y2="572.473" gradientTransform="matrix(8.5333 0 0 -8.5333 336.5587 5433.2866)">
		<stop  offset="0" style="stop-color:#FC5C7D"/>
		<stop  offset="0.129" style="stop-color:#F35E85"/>
		<stop  offset="0.343" style="stop-color:#D9659B"/>
		<stop  offset="0.616" style="stop-color:#B070BF"/>
		<stop  offset="0.934" style="stop-color:#777FF0"/>
		<stop  offset="1" style="stop-color:#6A82FB"/>
	</linearGradient>
	<rect x="456.591" y="128.002" style="fill:url(#SVGID_5_);" width="17.067" height="17.067"/>
	
		<linearGradient id="SVGID_6_" gradientUnits="userSpaceOnUse" x1="-32.9337" y1="636.3" x2="-32.9337" y2="572.473" gradientTransform="matrix(8.5333 0 0 -8.5333 336.5587 5433.2866)">
		<stop  offset="0" style="stop-color:#FC5C7D"/>
		<stop  offset="0.129" style="stop-color:#F35E85"/>
		<stop  offset="0.343" style="stop-color:#D9659B"/>
		<stop  offset="0.616" style="stop-color:#B070BF"/>
		<stop  offset="0.934" style="stop-color:#777FF0"/>
		<stop  offset="1" style="stop-color:#6A82FB"/>
	</linearGradient>
	<rect x="46.991" y="85.335" style="fill:url(#SVGID_6_);" width="17.067" height="17.067"/>
	
		<linearGradient id="SVGID_7_" gradientUnits="userSpaceOnUse" x1="-30.9337" y1="636.3" x2="-30.9337" y2="572.473" gradientTransform="matrix(8.5333 0 0 -8.5333 336.5587 5433.2866)">
		<stop  offset="0" style="stop-color:#FC5C7D"/>
		<stop  offset="0.129" style="stop-color:#F35E85"/>
		<stop  offset="0.343" style="stop-color:#D9659B"/>
		<stop  offset="0.616" style="stop-color:#B070BF"/>
		<stop  offset="0.934" style="stop-color:#777FF0"/>
		<stop  offset="1" style="stop-color:#6A82FB"/>
	</linearGradient>
	<rect x="64.057" y="426.669" style="fill:url(#SVGID_7_);" width="17.067" height="17.067"/>
</g>
<g>
</g>
<g>
</g>
<g>
</g>
<g>
</g>
<g>
</g>
<g>
</g>
<g>
</g>
<g>
</g>
<g>
</g>
<g>
</g>
<g>
</g>
<g>
</g>
<g>
</g>
<g>
</g>
<g>
</g>
</svg>
